<?xml version="1.0" encoding="UTF-8" standalone="no" ?>
<!DOCTYPE svg PUBLIC "-//W3C//DTD SVG 1.1//EN" "http://www.w3.org/Graphics/SVG/1.1/DTD/svg11.dtd">
<svg xmlns="http://www.w3.org/2000/svg" xmlns:xlink="http://www.w3.org/1999/xlink" version="1.1" width="100" height="100" viewBox="0 0 100 100" xml:space="preserve">
<desc>Created with Fabric.js 5.3.0</desc>
<defs>
</defs>
<g transform="matrix(0.9084290981 0 0 0.9084290981 36.8982160802 50)" id="5NUU8bJ8LYajbnnFJJhQh"  >
<path style="stroke: none; stroke-width: 1; stroke-dasharray: none; stroke-linecap: butt; stroke-dashoffset: 0; stroke-linejoin: miter; stroke-miterlimit: 4; fill: rgb(179,181,179); fill-rule: nonzero; opacity: 1;"  transform=" translate(-40, -39.9995)" d="M 64.002 38.692 L 41.308 38.692 L 41.308 25.094 C 48.602 24.901 54.766 23.12 59.564 21.027 C 62.337 26.437 63.823 32.342 64.002 38.692 z M 41.308 2.16 L 41.308 22.477 C 47.964 22.293 53.663 20.721 58.288 18.721 C 56.525999999999996 15.769 54.363 12.974 51.797999999999995 10.345 C 47.724 6.17 43.608 3.488 41.308 2.16 z M 38.692 38.692 L 38.692 25.094 C 31.398 24.901 25.234 23.12 20.436 21.027 C 17.663 26.437 16.177 32.342 15.998000000000001 38.693 L 38.692 38.693 z M 28.202 10.345 C 25.635 12.975000000000001 23.470000000000002 15.772 21.708000000000002 18.727 C 26.195 20.656 31.929000000000002 22.287 38.69200000000001 22.476 L 38.69200000000001 2.16 C 36.392 3.488 32.276 6.17 28.202 10.345 z M 66.62 41.308 C 66.452 47.484 65.08800000000001 53.351 62.55800000000001 58.763 C 62.35300000000001 59.202999999999996 62.13700000000001 59.638999999999996 61.916000000000004 60.073 C 63.132000000000005 60.682 64.23700000000001 61.297 65.22500000000001 61.892 C 67.44500000000001 63.229000000000006 69.266 64.562 70.676 65.706 C 76.248 59.063 79.702 50.585 80 41.309000000000005 L 66.62 41.309000000000005 z M 13.38 38.692 C 13.549000000000001 32.516 14.913 26.649 17.442 21.237000000000002 C 17.648 20.797 17.863 20.361 18.084 19.927000000000003 C 16.868 19.318000000000005 15.763 18.703000000000003 14.774999999999999 18.108000000000004 C 12.554999999999998 16.771000000000004 10.733999999999998 15.438000000000004 9.323999999999998 14.294000000000004 C 3.752 20.938 0.298 29.416 0 38.692 L 13.38 38.692 z M 38.692 41.308 L 15.998 41.308 C 16.177 47.658 17.663 53.563 20.436 58.973 C 25.234 56.879999999999995 31.399 55.099 38.692 54.906 L 38.692 41.308 z M 18.084 60.073 C 17.863 59.639 17.647 59.203 17.442 58.763 C 14.912 53.349999999999994 13.548 47.483999999999995 13.379999999999999 41.308 L 0 41.308 C 0.298 50.584 3.752 59.062 9.324 65.705 C 10.734 64.56099999999999 12.555 63.228 14.774999999999999 61.891 C 15.763 61.297 16.868 60.681 18.084 60.073 z M 26.4 71.554 C 23.624 68.721 21.262999999999998 65.646 19.346999999999998 62.38 C 15.804999999999998 64.151 13.026999999999997 66.099 11.077999999999998 67.665 C 17.726999999999997 74.614 26.854999999999997 79.17 37.041 79.914 C 34.56 78.456 30.496 75.735 26.4 71.554 z M 16.212 15.92 C 17.146 16.479 18.19 17.059 19.34 17.631 C 21.257 14.361 23.621 11.283000000000001 26.4 8.446 C 30.496 4.266 34.56 1.5439999999999996 37.041 0.0860000000000003 C 26.853 0.83 17.723 5.388 11.074 12.34 C 12.408 13.416 14.129 14.671 16.212 15.92 z M 63.788 64.08 C 62.854 63.521 61.809999999999995 62.940999999999995 60.66 62.369 C 58.742999999999995 65.639 56.379 68.717 53.599999999999994 71.554 C 49.50399999999999 75.73400000000001 45.44 78.456 42.958999999999996 79.914 C 53.147999999999996 79.169 62.27799999999999 74.611 68.92699999999999 67.66 C 67.592 66.584 65.871 65.329 63.788 64.08 z M 53.6 8.446 C 56.376000000000005 11.279 58.737 14.354 60.653 17.619999999999997 C 64.195 15.848999999999997 66.973 13.900999999999998 68.92099999999999 12.334999999999997 C 62.273 5.386 53.145 0.83 42.959 0.085 C 45.44 1.544 49.504 4.266 53.6 8.446 z M 41.308 41.308 L 41.308 54.906 C 48.602 55.099 54.766 56.879999999999995 59.564 58.973 C 62.337 53.563 63.823 47.658 64.002 41.308 L 41.308 41.308 z M 51.798 69.655 C 54.365 67.025 56.53 64.22800000000001 58.292 61.273 C 53.805 59.344 48.071 57.713 41.308 57.524 L 41.308 77.84 C 43.608 76.512 47.724 73.83 51.798 69.655 z M 65.224 18.108 C 64.236 18.703 63.131 19.318 61.915000000000006 19.927 C 62.136 20.361 62.352000000000004 20.797 62.55700000000001 21.237 C 65.087 26.65 66.45100000000001 32.516 66.61900000000001 38.69199999999999 L 80 38.69199999999999 C 79.702 29.415999999999993 76.248 20.93799999999999 70.676 14.294999999999995 C 69.266 15.438 67.445 16.771 65.224 18.108 z M 38.692 77.84 L 38.692 57.523 C 32.036 57.707 26.337 59.279 21.712 61.279 C 23.474 64.23100000000001 25.637 67.02600000000001 28.201999999999998 69.655 C 32.276 73.83 36.392 76.512 38.692 77.84 z" stroke-linecap="round" />
</g>
<g transform="matrix(0.1336746486 0 0 0.1768671608 59.6957035286 50)" id="hxmzdK0eMUNQyVMkfrgn7"  >
<g style=""   >
		<g transform="matrix(1 0 0 1 0 4.1200151356)" id="bu7UybzF7ZEqVa3ou-DdL"  >
<path style="stroke: none; stroke-width: 1; stroke-dasharray: none; stroke-linecap: butt; stroke-dashoffset: 0; stroke-linejoin: miter; stroke-miterlimit: 4; fill: rgb(38,74,169); fill-rule: nonzero; opacity: 1;"  transform=" translate(-300.001109276, -304.1200698183)" d="M 373.95 81.282 C 374.851 69.262 389.192 58.474999999999994 397.98 70.614 C 401.82800000000003 75.93100000000001 402.466 83.397 399.57500000000005 89.28800000000001 C 396.54400000000004 95.465 388.95300000000003 99.659 382.51900000000006 97.21800000000002 C 376.472 94.924 373.467 87.733 373.95 81.282 z M 597.666 417.2 C 589.922 401.71299999999997 567.7800000000001 398.495 552.783 392.764 C 532.33 384.949 511.02500000000003 376.555 496.594 360.087 C 486.709 348.807 481.67199999999997 329.60699999999997 493.11 319.902 C 500.298 313.804 512.054 313.421 516.838 305.299 C 519.717 300.411 518.756 294.44599999999997 515.7729999999999 289.483 C 514.1399999999999 286.767 511.9009999999999 284.35 509.3539999999999 282.574 C 502.1549999999999 277.555 493.1809999999999 276.033 484.81699999999995 273.37600000000003 C 476.453 270.71900000000005 467.79299999999995 266.103 464.60599999999994 257.92100000000005 C 453.57199999999995 229.58700000000005 539.8359999999999 220.25700000000006 554.645 209.43300000000005 C 565.093 201.79600000000005 573.052 189.69300000000004 572.658 176.75700000000006 C 572.264 163.82100000000008 561.568 151.11100000000005 548.6270000000001 151.25800000000007 C 536.6410000000001 151.39300000000006 527.258 161.33600000000007 520.2070000000001 171.03100000000006 C 508.9960000000001 186.44500000000005 493.9220000000001 202.83100000000007 477.1680000000001 212.19900000000007 C 467.6980000000001 217.49400000000006 456.52300000000014 220.49900000000008 445.9020000000001 218.28600000000006 C 435.28100000000006 216.07300000000004 425.5730000000001 207.84100000000007 423.7030000000001 197.15500000000006 C 421.9560000000001 187.17800000000005 426.94200000000006 177.33600000000007 432.3180000000001 168.75100000000006 C 437.6940000000001 160.16700000000006 443.8120000000001 151.43000000000006 444.6900000000001 141.33900000000006 C 445.5670000000001 131.24800000000005 438.5910000000001 119.64800000000005 428.4640000000001 119.86000000000006 C 418.5970000000001 120.06600000000006 412.4600000000001 130.34200000000004 408.2700000000001 139.27700000000004 C 404.1410000000001 148.08100000000005 400.4420000000001 162.65900000000005 393.7050000000001 169.64400000000003 C 384.6620000000001 179.02000000000004 378.2610000000001 173.80300000000003 368.4950000000001 173.80300000000003 C 360.9130000000001 168.42400000000004 359.6350000000001 157.97100000000003 357.3420000000001 148.96200000000002 C 355.0500000000001 139.95300000000003 348.6540000000001 129.82800000000003 339.4120000000001 130.83700000000002 C 328.8400000000001 131.991 325.5070000000001 146.001 316.9170000000001 152.27200000000002 C 302.4920000000001 162.80200000000002 283.38400000000007 147.419 273.4870000000001 132.55300000000003 C 263.5900000000001 117.68600000000002 240.25600000000009 83.99100000000003 223.02300000000008 88.68200000000002 C 204.56200000000007 93.70800000000001 201.1380000000001 134.43300000000002 202.93900000000008 153.48200000000003 C 204.74000000000007 172.53000000000003 212.18000000000006 198.29200000000003 193.18200000000007 200.55300000000003 C 179.15000000000006 202.22400000000002 161.86100000000008 188.312 154.06200000000007 177.84500000000003 C 147.15300000000008 168.57300000000004 147.20600000000007 157.53500000000003 133.81500000000005 155.90500000000003 C 121.18600000000005 154.36700000000002 110.16300000000005 169.35600000000002 116.86800000000005 180.43700000000004 C 120.26400000000005 186.05000000000004 126.19000000000005 189.58400000000003 132.03800000000004 192.55700000000004 C 137.88600000000005 195.53000000000006 144.04400000000004 198.27600000000004 148.60500000000005 202.99300000000005 C 158.11000000000004 212.82500000000005 159.45000000000005 231.77600000000007 145.01200000000006 235.55900000000005 C 129.02100000000007 239.75000000000006 107.09700000000007 228.15500000000006 94.73400000000007 219.40500000000006 C 79.83500000000006 208.86100000000005 66.44800000000006 195.71100000000007 49.618000000000066 188.64600000000007 C 37.402000000000065 183.5180000000001 12.134000000000064 180.30200000000008 2.969000000000065 193.41900000000007 C -5.301999999999936 205.25700000000006 5.150000000000065 226.27600000000007 16.746000000000066 232.01400000000007 C 31.965000000000067 239.54400000000007 49.981000000000066 236.12600000000006 66.89600000000007 234.64600000000007 C 86.59800000000007 232.92200000000008 107.82100000000007 234.53200000000007 123.74200000000008 246.26400000000007 C 134.23500000000007 253.99600000000007 141.53800000000007 267.4630000000001 141.17100000000008 280.64000000000004 C 140.68600000000006 298.02700000000004 128.12800000000007 298.72 114.77900000000008 305.28400000000005 C 110.05600000000008 307.60600000000005 105.25300000000009 309.98300000000006 101.45200000000008 313.624 C 97.65200000000009 317.26500000000004 94.94500000000008 322.435 95.54300000000008 327.663 C 96.31400000000008 334.401 102.41600000000008 339.54900000000004 108.95300000000007 341.358 C 118.28500000000008 343.942 126.48200000000007 339.67 135.91100000000006 342.076 C 146.11000000000007 344.677 162.99200000000005 354.59900000000005 163.41300000000007 366.255 C 163.94300000000007 380.916 144.31400000000008 392.712 132.86400000000006 396.984 C 118.51000000000006 402.34 102.92100000000006 404.006 88.84300000000006 410.05199999999996 C 74.76500000000006 416.09799999999996 61.64100000000006 428.49199999999996 61.598000000000056 443.81399999999996 C 61.50800000000005 475.50199999999995 97.04200000000006 463.909 107.05100000000006 445.77799999999996 C 113.46200000000006 434.16599999999994 122.07600000000006 425.76599999999996 133.52400000000006 417.84799999999996 C 145.37500000000006 409.65099999999995 158.53600000000006 403.31699999999995 172.36000000000007 399.24399999999997 C 180.03800000000007 396.98199999999997 193.07800000000006 394.94199999999995 199.89600000000007 400.49199999999996 C 210.44300000000007 409.07599999999996 202.55900000000008 427.40599999999995 206.23700000000008 438.804 C 210.9650000000001 453.453 231.51600000000008 463.13899999999995 242.28100000000006 452.135 C 254.33900000000006 439.80899999999997 242.99400000000006 416.316 254.05100000000007 403.08299999999997 C 264.5370000000001 390.53099999999995 287.41100000000006 399.643 292.3960000000001 415.21999999999997 C 297.3810000000001 430.79699999999997 290.1050000000001 447.58299999999997 281.24000000000007 461.328 C 272.37500000000006 475.072 261.4960000000001 488.255 258.21400000000006 504.277 C 254.93200000000004 520.3 263.06600000000003 540.282 279.24100000000004 542.706 C 299.29600000000005 545.711 312.636 520.592 310.63200000000006 500.41200000000003 C 308.63000000000005 480.232 298.1530000000001 461.23100000000005 298.70400000000006 440.96000000000004 C 299.17100000000005 423.783 316.77400000000006 399.723 336.14000000000004 408.245 C 347.7710000000001 413.36400000000003 344.68100000000004 421.115 347.535 430.642 C 350.396 440.194 358.408 448.38599999999997 367.744 451.897 C 379.13500000000005 456.181 393.92600000000004 452.068 399.17600000000004 441.09 C 402.737 433.64399999999995 401.81500000000005 424.131 407.25800000000004 417.92699999999996 C 412.612 411.823 421.961 411.462 429.97900000000004 412.741 C 437.99600000000004 414.019 446.23900000000003 416.454 454.062 414.288 C 472.118 409.29200000000003 454.21000000000004 396.235 461.697 386.211 C 464.94 381.868 470.628 379.87600000000003 476.048 379.92900000000003 C 481.468 379.982 486.704 381.81600000000003 491.714 383.886 C 510.45 391.629 527.637 403.07500000000005 542.073 417.302 C 552.9359999999999 428.007 572.768 452.755 590.942 444.12600000000003 C 600.244 439.713 602.187 426.455 597.666 417.2 z" stroke-linecap="round" />
</g>
		<g transform="matrix(1 0 0 1 -9.4324373127 0)" id="LcJwH7J6-CcBPJMKOAXEZ"  >
<path style="stroke: none; stroke-width: 1; stroke-dasharray: none; stroke-linecap: butt; stroke-dashoffset: 0; stroke-linejoin: miter; stroke-miterlimit: 4; fill: rgb(43,255,208); fill-rule: nonzero; opacity: 1;"  transform=" translate(-290.5686719633, -300.0000546827)" d="M 156.468 124.958 C 150.72799999999998 109.626 155.90599999999998 103.994 163.682 103.791 C 179.387 103.38199999999999 205.68699999999998 125.124 174.057 133.906 C 167.1 135.837 159.004 131.72 156.468 124.958 z M 462.494 95.859 C 466.29900000000004 94.547 468.944 89.247 468.245 84.342 C 465.064 62.049 451.92 78.736 451.35 89.553 C 451.068 94.91 453.87 98.827 462.494 95.859 z M 65.194 271.169 C 52.806000000000004 268.308 38.486000000000004 275.86199999999997 36.138000000000005 286.496 C 33.791000000000004 297.13 43.934000000000005 308.512 56.715 309.58799999999997 C 68.199 310.556 79.82000000000001 303.21399999999994 81.928 293.65999999999997 C 84.03599999999999 284.106 76.324 273.74 65.194 271.169 z M 515.869 449.215 C 503.45300000000003 442.19199999999995 487.848 446.80899999999997 485.18100000000004 458.29499999999996 C 482.51300000000003 469.78099999999995 493.47400000000005 485.167 506.735 488.55299999999994 C 517.558 491.31699999999995 528.106 485.9529999999999 530.283 476.5779999999999 C 532.459 467.204 526.004 454.947 515.869 449.215 z M 340.945 530.795 C 340.507 540.574 344.854 547.727 358.235 542.308 C 364.136 539.913 368.243 530.235 367.158 521.28 C 362.224 480.571 341.828 511.042 340.945 530.795 z M 530.51 268.724 C 521.097 263.747 510.125 262.993 499.60699999999997 261.348 C 484.748 259.02500000000003 465.78599999999994 253.54500000000002 458.78 239.08200000000002 C 443.77799999999996 208.11100000000002 467.06899999999996 180.53900000000002 485.907 159.23200000000003 C 491.32399999999996 153.10600000000002 496.878 146.74600000000004 499.42499999999995 138.97400000000002 C 501.9719999999999 131.202 500.7289999999999 121.57700000000003 494.29599999999994 116.52700000000002 C 489.10299999999995 112.44900000000001 481.6809999999999 112.23200000000001 475.41499999999996 114.31500000000001 C 469.149 116.39800000000001 463.76699999999994 120.46100000000001 458.50899999999996 124.45600000000002 C 441.501 137.38100000000003 426.12199999999996 155.39800000000002 402.97999999999996 150.961 C 361.08399999999995 150.961 363.443 86.70000000000002 359.60699999999997 59.94000000000001 C 358.498 52.20900000000001 357.104 43.890000000000015 351.541 38.40700000000001 C 343.189 30.17600000000001 328.316 32.32300000000001 319.789 40.372000000000014 C 311.262 48.42200000000001 307.895 60.527000000000015 306.543 72.17600000000002 C 305.19100000000003 83.82400000000001 305.463 95.72700000000002 302.529 107.08000000000001 C 297.678 125.85300000000001 279.53499999999997 153.473 257.387 152.017 C 238.207 150.756 226.607 130.685 219.47899999999998 112.834 C 214.164 99.523 206.701 49.824000000000005 191.605 44.342 C 173.128 37.632999999999996 170.886 58.635 175.189 70.656 C 181.292 87.703 195.137 100.62100000000001 205.19799999999998 115.67600000000002 C 215.26099999999997 130.734 221.24699999999999 151.662 210.68899999999996 166.377 C 202.65399999999997 177.574 187.71399999999997 181.293 173.95599999999996 182.104 C 160.19799999999995 182.91400000000002 145.98699999999997 181.699 133.00699999999995 186.33 C 120.02699999999994 190.96 108.53299999999994 204.043 111.66299999999995 217.465 C 116.84399999999995 239.676 150.36099999999996 243.78900000000002 161.35799999999995 263.889 C 174.16299999999995 287.294 171.79799999999994 318.999 153.94399999999996 339.201 C 145.87799999999996 348.32800000000003 135.34199999999996 355.084 127.70299999999996 364.571 C 120.06399999999996 374.057 115.85399999999996 388.15500000000003 122.57899999999997 398.31 C 129.28799999999995 408.442 144.05299999999997 410.071 155.50599999999997 406.009 C 166.95999999999998 401.946 176.28799999999998 393.622 186.40699999999998 386.89300000000003 C 215.219 367.735 251.85699999999997 374.999 256.206 413.10600000000005 C 257.685 426.071 257.197 439.59400000000005 262.32500000000005 451.5930000000001 C 267.45200000000006 463.5930000000001 280.81600000000003 473.5730000000001 293.14300000000003 469.2950000000001 C 313.14500000000004 462.3540000000001 308.39000000000004 430.72300000000007 323.40500000000003 415.79300000000006 C 335.391 403.87500000000006 356.69500000000005 407.29100000000005 369.326 418.5250000000001 C 381.958 429.7580000000001 388.07300000000004 446.4020000000001 393.72200000000004 462.33400000000006 C 401.98400000000004 485.63500000000005 410.24500000000006 508.93500000000006 418.50700000000006 532.234 C 421.52900000000005 540.758 424.66400000000004 549.484 430.4750000000001 556.4150000000001 C 436.28600000000006 563.3470000000001 445.42800000000005 568.219 454.2970000000001 566.445 C 470.0680000000001 563.2890000000001 475.06700000000006 541.673 468.6420000000001 526.9290000000001 C 462.2160000000001 512.1850000000001 448.83800000000014 501.8690000000001 438.6390000000001 489.43500000000006 C 416.8820000000001 462.91400000000004 410.07600000000014 424.88900000000007 421.2840000000001 392.4680000000001 C 434.1920000000001 355.12300000000005 465.7100000000001 321.0970000000001 505.7680000000001 315.3690000000001 C 513.541 314.2580000000001 521.5120000000001 314.0700000000001 529.0050000000001 311.72300000000007 C 551.232 304.76 549.833 278.94 530.51 268.724 z" stroke-linecap="round" />
</g>
</g>
</g>
</svg>